<?xml version="1.0" encoding="utf-8"?>
<!-- Generator: Adobe Illustrator 26.4.1, SVG Export Plug-In . SVG Version: 6.00 Build 0)  -->
<svg version="1.0" id="katman_1" xmlns="http://www.w3.org/2000/svg" xmlns:xlink="http://www.w3.org/1999/xlink" x="0px" y="0px"
	 viewBox="0 0 841.89 595.28" style="enable-background:new 0 0 841.89 595.28;" xml:space="preserve">
<style type="text/css">
	.st0{fill:#1A1D24;}
	.st1{fill:#FFFFFF;}
	.st2{fill:#C69C6C;}
	.st3{fill:#C4AB71;}
</style>
<g>
	<g>
		
			<ellipse transform="matrix(0.7071 -0.7071 0.7071 0.7071 -87.0762 384.4961)" class="st0" cx="420.59" cy="297.36" rx="250.41" ry="250.41"/>
		<g>
			<path class="st1" d="M420.59,154.54c57.22,0,106.53,33.6,129.32,82.18h83.98c-26.37-92.95-111.9-161.05-213.3-161.05
				c-101.4,0-186.92,68.1-213.3,161.05h83.98C314.06,188.14,363.37,154.54,420.59,154.54z M420.59,440.18
				c-57.21,0-106.53-33.6-129.32-82.19h-83.98c26.38,92.96,111.9,161.06,213.3,161.06c101.4,0,186.93-68.1,213.3-161.06h-83.98
				C527.12,406.58,477.8,440.18,420.59,440.18z"/>
		</g>
		<g>
			<path class="st2" d="M420.59,537.28c-132.29,0-239.93-107.63-239.93-239.93c0-132.29,107.63-239.93,239.93-239.93
				c132.3,0,239.93,107.63,239.93,239.93C660.51,429.65,552.88,537.28,420.59,537.28z M420.59,65.2
				c-128.01,0-232.15,104.15-232.15,232.15c0,128.01,104.14,232.15,232.15,232.15c128.01,0,232.15-104.14,232.15-232.15
				C652.73,169.35,548.59,65.2,420.59,65.2z"/>
		</g>
		<g>
			<g>
				<g>
					<path class="st0" d="M255.78,376.26c-2.17,1.06-4.75,0.08-5.76-2.17c-1-2.26,0-4.84,2.22-5.77c2.23-0.93,4.81,0.05,5.76,2.17
						C258.95,372.63,257.96,375.21,255.78,376.26z"/>
				</g>
			</g>
			<g>
				<g>
					<path class="st0" d="M264.04,391.56c-2.06,1.26-4.73,0.54-5.95-1.61c-1.22-2.15-0.48-4.81,1.65-5.95
						c2.13-1.14,4.79-0.41,5.95,1.61C266.85,387.64,266.11,390.3,264.04,391.56z"/>
				</g>
			</g>
			<g>
				<g>
					<path class="st0" d="M273.72,406.01c-1.93,1.45-4.66,0.98-6.08-1.05c-1.42-2.01-0.94-4.74,1.08-6.08
						c2.01-1.34,4.73-0.87,6.08,1.04C276.14,401.84,275.66,404.56,273.72,406.01z"/>
				</g>
			</g>
			<g>
				<g>
					<path class="st0" d="M284.72,419.47c-1.79,1.63-4.55,1.42-6.15-0.46c-1.61-1.87-1.39-4.63,0.49-6.15
						c1.88-1.52,4.64-1.32,6.15,0.46C286.73,415.09,286.51,417.85,284.72,419.47z"/>
				</g>
			</g>
			<g>
				<g>
					<path class="st0" d="M296.95,431.83c-1.63,1.79-4.39,1.85-6.17,0.13c-1.78-1.71-1.82-4.48-0.1-6.17
						c1.72-1.69,4.49-1.74,6.17-0.13C298.53,427.28,298.58,430.05,296.95,431.83z"/>
				</g>
			</g>
			<g>
				<g>
					<path class="st0" d="M310.29,442.99c-1.45,1.92-4.2,2.25-6.13,0.71c-1.93-1.53-2.24-4.28-0.68-6.12
						c1.56-1.85,4.3-2.17,6.13-0.72C311.44,438.3,311.74,441.05,310.29,442.99z"/>
				</g>
			</g>
			<g>
				<g>
					<path class="st0" d="M536.09,438.88c1.53,1.87,1.26,4.68-0.62,6.28c-2,1.44-4.81,1-6.23-0.94c-1.43-1.95-1.03-4.6,0.86-5.96
						C531.87,436.73,534.56,437.02,536.09,438.88z"/>
				</g>
			</g>
			<g>
				<g>
					<path class="st0" d="M549.02,427.26c1.7,1.71,1.7,4.54-0.02,6.31c-1.87,1.61-4.7,1.45-6.31-0.35c-1.6-1.81-1.47-4.5,0.31-6.02
						C544.62,425.53,547.32,425.55,549.02,427.26z"/>
				</g>
			</g>
			<g>
				<g>
					<path class="st0" d="M560.8,414.47c1.85,1.53,2.13,4.36,0.56,6.28c-1.71,1.78-4.54,1.88-6.3,0.24
						c-1.77-1.64-1.89-4.34-0.27-6.02C556.26,413.17,558.93,412.92,560.8,414.47z"/>
				</g>
			</g>
			<g>
				<g>
					<path class="st0" d="M571.31,400.62c1.99,1.35,2.55,4.16,1.15,6.19c-1.53,1.94-4.34,2.32-6.25,0.85
						c-1.92-1.47-2.29-4.14-0.84-5.96C566.69,399.77,569.3,399.25,571.31,400.62z"/>
				</g>
			</g>
			<g>
				<g>
					<path class="st0" d="M580.46,385.83c2.1,1.15,2.95,3.91,1.72,6.05c-1.34,2.07-4.09,2.72-6.14,1.44
						c-2.06-1.28-2.68-3.91-1.41-5.87C575.81,385.44,578.33,384.66,580.46,385.83z"/>
				</g>
			</g>
			<g>
				<g>
					<path class="st0" d="M588.17,370.24c2.18,0.94,3.35,3.63,2.28,5.85c-1.14,2.19-3.81,3.09-5.98,2.02
						c-2.16-1.08-3.04-3.64-1.97-5.7C583.52,370.31,585.91,369.28,588.17,370.24z"/>
				</g>
			</g>
		</g>
		<g>
			<g>
				<path class="st0" d="M264.88,205.78l4.21-8.19l2.42,1.24l-1.43,2.77l14.47,7.45l-1.36,2.65l-14.47-7.45l-1.43,2.78
					L264.88,205.78z"/>
				<path class="st0" d="M294.26,193.02l-1.72,2.43l-15.49-10.97l1.72-2.43l6.65,4.71l1.96-2.77l-6.64-4.71l1.76-2.48l15.5,10.97
					l-1.76,2.48l-6.64-4.7l-1.96,2.76L294.26,193.02z"/>
				<path class="st0" d="M300.6,167.72l2.82-2.98l1.96,1.85l-2.82,2.98l4.04,3.82l3.53-3.74l1.98,1.86l-5.59,5.91l-13.8-13.04
					l5.58-5.91l1.97,1.86l-3.53,3.74L300.6,167.72z"/>
				<path class="st0" d="M330.99,142.61l3.22-2.11l1.49,2.27l-3.23,2.11l4.3,6.56l-2.49,1.63l-10.39-15.89l6.6-4.32l1.49,2.27
					l-4.11,2.69L330.99,142.61z"/>
				<path class="st0" d="M343.68,125.51l2.67-1.32l8.42,17.01l-2.67,1.32L343.68,125.51z"/>
				<path class="st0" d="M365.24,121.92l4.48,12.99l-2.54,0.87l-6.19-17.95l3.54-1.22l6.6,9.75l-3.71-10.75l2.52-0.86l6.19,17.95
					l-2.91,1L365.24,121.92z"/>
				<path class="st0" d="M389.93,117.97l4.03-0.78l0.51,2.65l-4.03,0.78l1.05,5.46l5.06-0.97l0.51,2.66l-7.99,1.53l-3.58-18.64
					l7.98-1.53l0.52,2.67l-5.06,0.97L389.93,117.97z"/>
				<path class="st0" d="M413.16,106.82c2.92-0.15,4.47,1.36,4.64,4.53l0.05,1l-2.82,0.15l-0.06-1.19c-0.07-1.24-0.6-1.84-1.59-1.78
					c-1,0.05-1.46,0.7-1.39,1.94c0.04,0.85,0.39,1.66,1.04,2.41c0.25,0.29,0.58,0.61,0.99,0.96l0.83,0.7
					c0.11,0.09,0.21,0.17,0.29,0.24c0.46,0.39,0.83,0.72,1.11,1c0.4,0.39,0.74,0.79,1.01,1.18c0.66,0.96,1.02,2.04,1.09,3.26
					c0.16,3.17-1.23,4.84-4.19,4.99c-2.96,0.16-4.53-1.35-4.69-4.52l-0.1-1.84l2.82-0.15l0.11,2.02c0.07,1.23,0.61,1.82,1.65,1.77
					c1.02-0.06,1.5-0.7,1.43-1.93c-0.04-0.85-0.39-1.65-1.03-2.39c-0.26-0.29-0.59-0.61-0.99-0.97l-1.12-0.94
					c-0.46-0.38-0.84-0.71-1.13-1c-0.39-0.39-0.72-0.78-0.99-1.17c-0.66-0.96-1.02-2.06-1.09-3.27
					C408.86,108.64,410.24,106.97,413.16,106.82z"/>
				<path class="st0" d="M432.33,107l9.18,0.76l-0.22,2.7l-3.09-0.25l-1.33,16.22l-2.97-0.24l1.33-16.22l-3.11-0.26L432.33,107z"/>
				<path class="st0" d="M472.07,118.62c1.01-3.01,2.94-4.04,5.8-3.09c2.87,0.96,3.79,2.94,2.79,5.95l-3.12,9.37
					c-0.34,1.01-0.8,1.79-1.38,2.34c0.01,0.28,0.24,0.5,0.67,0.64l0.26,0.08l-0.85,2.53l-0.39-0.13c-1.22-0.4-1.89-1.08-2.03-2.04
					c-0.69,0.01-1.39-0.1-2.09-0.33c-2.86-0.95-3.79-2.94-2.78-5.95L472.07,118.62z M471.72,129.11c-0.4,1.19-0.11,1.95,0.87,2.27
					c0.98,0.33,1.66-0.11,2.06-1.29l3.24-9.72c0.39-1.18,0.1-1.93-0.88-2.26c-0.98-0.33-1.67,0.1-2.06,1.28L471.72,129.11z"/>
				<path class="st0" d="M499.37,124.57l-6.57,13.09c-0.55,1.1-0.36,1.89,0.56,2.35c0.92,0.46,1.66,0.14,2.21-0.96l6.56-13.09
					l2.52,1.26l-6.48,12.92c-1.42,2.84-3.46,3.6-6.11,2.27c-2.65-1.33-3.26-3.41-1.84-6.25l6.48-12.92L499.37,124.57z"/>
				<path class="st0" d="M515.49,156.47l-2.47-1.71l1.54-3.12l-3-2.09l-2.39,2.53l-2.25-1.56l13.32-13.86l3.59,2.49L515.49,156.47z
					 M513.33,147.64l2.37,1.65l4.29-8.71L513.33,147.64z"/>
				<path class="st0" d="M538.19,150.54l2.19,2.02l-11.02,11.97l3.61,3.32l-1.84,2l-5.81-5.34L538.19,150.54z"/>
				<path class="st0" d="M554.32,166.83l1.94,2.26l-14.42,12.34l-1.94-2.26L554.32,166.83z"/>
				<path class="st0" d="M565.47,180.96l5.11,7.67l-2.26,1.5l-1.73-2.59l-13.54,9.02l-1.65-2.48l13.54-9.02l-1.73-2.6L565.47,180.96
					z"/>
				<path class="st0" d="M567.92,210l9.81-8.91l1.36,2.81l-6.81,5.81l8.79-1.7l1.23,2.56l-13.08,2.11l-5.67,2.73l-1.29-2.69
					L567.92,210z"/>
			</g>
			<g>
				<path class="st0" d="M336.83,437.79l2.54,1.56l-8.51,13.87l4.19,2.57l-1.42,2.31l-6.73-4.13L336.83,437.79z"/>
				<path class="st0" d="M348.03,444.32l2.64,1.37l-8.74,16.85l-2.64-1.37L348.03,444.32z"/>
				<path class="st0" d="M356.6,463.2l7-11.7l3.84,1.57l-7.2,17.57l-2.61-1.07l5.16-12.6l-7.06,11.82l-2.61-1.07l3.03-13.27
					l-5.09,12.42l-2.41-0.99l7.2-17.57l3.84,1.57L356.6,463.2z"/>
				<path class="st0" d="M372.98,454.84l2.85,0.88l-5.61,18.14l-2.85-0.88L372.98,454.84z"/>
				<path class="st0" d="M380.74,457.17l8.98,2.08l-0.61,2.64l-3.03-0.7l-3.67,15.85l-2.9-0.67l3.67-15.85l-3.04-0.71L380.74,457.17
					z"/>
				<path class="st0" d="M396.47,468.49l4.06,0.59l-0.39,2.67l-4.06-0.59l-0.8,5.51l5.1,0.73l-0.39,2.69l-8.05-1.17l2.72-18.79
					l8.05,1.17l-0.39,2.68l-5.1-0.74L396.47,468.49z"/>
				<path class="st0" d="M408.21,461.87l4.7,0.29c2.96,0.19,4.34,1.84,4.15,4.97l-0.59,9.58c-0.19,3.12-1.77,4.59-4.73,4.4
					l-4.7-0.29L408.21,461.87z M411.02,464.76l-0.84,13.53l1.68,0.1c1.01,0.06,1.56-0.52,1.63-1.74l0.61-9.86
					c0.08-1.22-0.39-1.87-1.41-1.93L411.02,464.76z"/>
				<path class="st0" d="M434.54,470.17l4.09-0.27l0.18,2.7l-4.09,0.27l0.37,5.55l5.14-0.34l0.18,2.71l-8.11,0.54l-1.25-18.94
					l8.11-0.54l0.18,2.71l-5.14,0.34L434.54,470.17z"/>
				<path class="st0" d="M444.58,461.26l4.65-0.73c2.93-0.45,4.64,0.86,5.12,3.96l1.48,9.48c0.48,3.09-0.74,4.86-3.67,5.32
					l-4.66,0.73L444.58,461.26z M447.94,463.48l2.09,13.39l1.66-0.26c1-0.16,1.41-0.84,1.22-2.05l-1.53-9.76
					c-0.19-1.22-0.79-1.74-1.79-1.59L447.94,463.48z"/>
				<path class="st0" d="M459.13,458.63l2.9-0.69l4.4,18.47l-2.9,0.69L459.13,458.63z"/>
				<path class="st0" d="M466.96,456.69l8.77-2.81l0.83,2.58l-2.96,0.95l4.97,15.5l-2.84,0.91l-4.97-15.49l-2.97,0.95L466.96,456.69
					z"/>
				<path class="st0" d="M480.49,452.01l2.76-1.13l7.2,17.57l-2.76,1.13L480.49,452.01z"/>
				<path class="st0" d="M490.45,452.72c-1.44-2.83-0.81-4.93,1.88-6.3c2.69-1.37,4.76-0.64,6.2,2.2l4.47,8.8
					c1.44,2.83,0.81,4.93-1.88,6.3c-2.69,1.37-4.75,0.64-6.2-2.2L490.45,452.72z M497.66,460.34c0.57,1.11,1.31,1.44,2.23,0.97
					c0.92-0.47,1.1-1.26,0.53-2.38l-4.64-9.13c-0.56-1.11-1.31-1.43-2.22-0.96c-0.92,0.47-1.1,1.26-0.53,2.37L497.66,460.34z"/>
				<path class="st0" d="M506.28,444.81l7.43,11.56l-2.26,1.45l-10.27-15.97l3.15-2.03l8.72,7.91l-6.15-9.57l2.24-1.44l10.27,15.97
					l-2.59,1.66L506.28,444.81z"/>
			</g>
		</g>
		<g>
			<path class="st1" d="M262.12,271.56c0-1.43-0.04-2.61-0.12-3.52c-0.08-0.91-0.19-1.7-0.35-2.35c-0.31-1.82-1.26-2.73-2.85-2.73
				c-1.28,0-2.07,0.72-2.38,2.15c-0.47,1.13-0.7,2.87-0.7,5.23v53.7c0,2.52,0.23,4.26,0.7,5.23c0.31,1.51,1.1,2.27,2.38,2.27
				c1.59,0,2.54-0.95,2.85-2.85c0.15-0.47,0.27-1.18,0.35-2.15c0.08-0.97,0.12-2.21,0.12-3.72v-16.04l9.3-4.18v21.79
				c0,6.2-1.03,10.33-3.08,12.38c-2.33,2.28-5.5,3.43-9.53,3.43c-1.74,0-3.39-0.27-4.94-0.81c-1.55-0.54-2.92-1.41-4.13-2.62
				c-1.24-1.12-2.15-2.79-2.73-5c-0.15-0.78-0.31-1.76-0.46-2.96c-0.16-1.2-0.23-2.6-0.23-4.18v-54.63c0-1.59,0.08-2.95,0.23-4.1
				c0.15-1.14,0.31-2.16,0.46-3.05c0.23-1.01,0.57-1.97,1.02-2.88c0.44-0.91,1.02-1.69,1.71-2.35c2.48-2.05,5.46-3.08,8.95-3.08
				c3.87,0,7.09,1.14,9.65,3.43c1.05,1.05,1.82,2.54,2.32,4.48c0.5,1.94,0.76,4.46,0.76,7.56v14.76c-3.26,0-6.36,1.2-9.3,3.6V271.56
				z"/>
			<path class="st1" d="M329.51,331.95c-0.52,2.01-1.21,3.59-2.06,4.71c-2.4,2.36-5.5,3.55-9.3,3.55c-3.8,0-6.94-1.18-9.42-3.55
				c-1.32-1.36-2.23-2.98-2.73-4.88c-0.15-0.85-0.31-1.88-0.46-3.08c-0.16-1.2-0.23-2.59-0.23-4.18v-54.63
				c0-1.43,0.08-2.72,0.23-3.87c0.15-1.14,0.31-2.08,0.46-2.82c0.5-1.98,1.42-3.72,2.73-5.23c2.48-2.28,5.62-3.43,9.42-3.43
				c3.64,0,6.74,1.26,9.3,3.78c0.7,0.66,1.27,1.52,1.72,2.59c0.45,1.06,0.75,2.31,0.9,3.75c0.15,0.7,0.23,1.76,0.23,3.2
				c0,1.43,0,3.18,0,5.23v51.2C330.29,327.38,330.03,329.93,329.51,331.95z M320.87,267.99c-0.08-0.95-0.19-1.72-0.35-2.3
				c-0.39-1.67-1.18-2.5-2.38-2.5c-1.43,0-2.38,0.76-2.85,2.27c-0.08,0.66-0.15,1.39-0.23,2.18c-0.08,0.79-0.12,1.85-0.12,3.17
				v53.12c0,1.36,0.04,2.43,0.12,3.23c0.08,0.79,0.15,1.46,0.23,2c0.47,1.43,1.42,2.15,2.85,2.15c1.28,0,2.07-0.79,2.38-2.38
				c0.16-0.47,0.27-1.15,0.35-2.06c0.08-0.91,0.12-2.04,0.12-3.4v-52.02C320.99,270.09,320.95,268.94,320.87,267.99z"/>
			<path class="st1" d="M366.32,334.97c0.47-1.01,0.7-3.02,0.7-6.04V266.1c0-1.59-0.06-2.89-0.17-3.89
				c-0.11-1.01-0.29-1.82-0.52-2.44c-0.08-0.62-0.34-1.27-0.78-1.95c-0.45-0.68-1.02-1.39-1.71-2.12h29.06v15.98
				c-0.89-2.94-2.02-4.8-3.37-5.58c-0.93-0.73-2.52-1.1-4.76-1.1h-7.96v25.22h5.46c1.2,0,2.18-0.02,2.94-0.06
				c0.75-0.04,1.4-0.14,1.95-0.29c0.66-0.39,1.33-0.98,2-1.77c0.68-0.79,1.29-1.75,1.83-2.88v20.11c-1.67-3.26-3.78-4.88-6.34-4.88
				h-7.85v28.48c0,3.02,0.11,5.04,0.35,6.04c0.5,1.36,1.41,2.71,2.73,4.07h-16.04C365.41,337.45,366.25,336.1,366.32,334.97z"/>
			<path class="st1" d="M430.26,334.97c0.47-1.01,0.7-3.02,0.7-6.04V266.1c0-1.59-0.06-2.89-0.17-3.89
				c-0.11-1.01-0.29-1.82-0.52-2.44c-0.08-0.62-0.34-1.27-0.78-1.95c-0.45-0.68-1.02-1.39-1.71-2.12h29.06v15.98
				c-0.89-2.94-2.02-4.8-3.37-5.58c-0.93-0.73-2.52-1.1-4.76-1.1h-7.96v25.22h5.46c1.2,0,2.18-0.02,2.94-0.06
				c0.75-0.04,1.4-0.14,1.95-0.29c0.66-0.39,1.33-0.98,2-1.77c0.68-0.79,1.29-1.75,1.83-2.88v20.11c-1.67-3.26-3.78-4.88-6.34-4.88
				h-7.85v28.48c0,3.02,0.11,5.04,0.35,6.04c0.5,1.36,1.41,2.71,2.73,4.07h-16.04C429.34,337.45,430.18,336.1,430.26,334.97z"/>
			<path class="st1" d="M519.88,271.21c-0.62-2.09-1.52-3.65-2.7-4.68c-1.18-1.03-2.74-1.54-4.68-1.54h-8.43v25.22h4.42
				c0.93,0,1.75-0.02,2.47-0.06c0.72-0.04,1.27-0.21,1.66-0.52c0.81-0.31,1.5-0.86,2.06-1.66c0.56-0.79,1.11-1.71,1.66-2.76v20.11
				c-0.46-0.93-0.94-1.75-1.42-2.47c-0.49-0.72-1-1.23-1.54-1.54c-1.05-0.58-2.32-0.87-3.84-0.87h-5.46v29.06h10.69
				c1.36,0,2.41-0.38,3.17-1.13c0.75-0.76,1.4-1.93,1.95-3.52v14.18h-28.19c0.62-0.62,1.11-1.25,1.48-1.89
				c0.37-0.64,0.67-1.29,0.9-1.95c0.39-1.16,0.58-3.06,0.58-5.7V265c0-2.44-0.19-4.26-0.58-5.46c-0.23-0.54-0.53-1.13-0.9-1.77
				c-0.37-0.64-0.86-1.33-1.48-2.06h28.19V271.21z"/>
			<path class="st1" d="M580.55,271.21c-0.62-2.09-1.52-3.65-2.7-4.68c-1.18-1.03-2.74-1.54-4.68-1.54h-8.43v25.22h4.42
				c0.93,0,1.75-0.02,2.47-0.06c0.72-0.04,1.27-0.21,1.66-0.52c0.81-0.31,1.5-0.86,2.06-1.66c0.56-0.79,1.11-1.71,1.66-2.76v20.11
				c-0.46-0.93-0.94-1.75-1.42-2.47c-0.49-0.72-1-1.23-1.54-1.54c-1.05-0.58-2.32-0.87-3.84-0.87h-5.46v29.06h10.69
				c1.36,0,2.41-0.38,3.17-1.13c0.75-0.76,1.4-1.93,1.95-3.52v14.18h-28.19c0.62-0.62,1.11-1.25,1.48-1.89
				c0.37-0.64,0.67-1.29,0.9-1.95c0.39-1.16,0.58-3.06,0.58-5.7V265c0-2.44-0.19-4.26-0.58-5.46c-0.23-0.54-0.53-1.13-0.9-1.77
				c-0.37-0.64-0.86-1.33-1.48-2.06h28.19V271.21z"/>
		</g>
	</g>
	<g>
		<path class="st3" d="M420.03,168.45c-11.88,0-21.51,13.75-21.51,30.71c0,16.96,9.63,30.71,21.51,30.71s21.51-13.75,21.51-30.71
			C441.53,182.2,431.9,168.45,420.03,168.45z M423.65,218.05c-0.16,1.34-0.41,2.56-0.66,3.63c-0.25,1.07-0.53,1.98-0.79,2.72
			c-0.25,0.74-0.5,1.31-0.66,1.7c-0.17,0.38-0.28,0.58-0.28,0.58s0.05-0.22,0.13-0.63c0.08-0.41,0.17-1.01,0.28-1.77
			c0.1-0.76,0.2-1.7,0.28-2.76c0.08-1.06,0.12-2.27,0.13-3.57c-0.02-0.65,0.01-1.33-0.05-2.03c-0.05-0.7-0.04-1.42-0.13-2.16
			c-0.08-0.74-0.12-1.5-0.26-2.26c-0.13-0.77-0.2-1.56-0.39-2.34c-0.29-1.58-0.71-3.2-1.18-4.8c-0.13-0.39-0.26-0.79-0.38-1.18
			c-0.13-0.4-0.24-0.79-0.42-1.2c-0.32-0.81-0.64-1.62-0.95-2.43c-0.32-0.87-0.64-1.74-0.95-2.6c-0.26-0.89-0.46-1.78-0.69-2.67
			c-0.19-0.89-0.28-1.8-0.41-2.68c-0.1-0.89-0.1-1.77-0.14-2.63c-0.01-0.86,0.06-1.71,0.11-2.54c0.08-0.83,0.22-1.63,0.32-2.4
			c0.15-0.77,0.32-1.52,0.49-2.24c0.22-0.7,0.42-1.38,0.62-2.03c0.25-0.64,0.47-1.25,0.7-1.82c0.26-0.56,0.51-1.09,0.75-1.59
			c0.26-0.48,0.49-0.94,0.73-1.35c0.25-0.4,0.48-0.77,0.68-1.11c0.43-0.66,0.8-1.15,1.06-1.48c0.26-0.33,0.41-0.49,0.41-0.49
			s-0.1,0.2-0.28,0.58c-0.18,0.37-0.41,0.94-0.71,1.65c-0.14,0.36-0.28,0.76-0.45,1.19c-0.15,0.44-0.31,0.91-0.48,1.42
			c-0.15,0.51-0.3,1.05-0.47,1.62c-0.14,0.57-0.29,1.18-0.44,1.81c-0.11,0.64-0.23,1.3-0.35,1.98c-0.07,0.69-0.19,1.4-0.25,2.13
			c-0.03,0.73-0.1,1.48-0.1,2.25c0.04,0.77,0.01,1.55,0.07,2.34c0.04,0.39,0.08,0.79,0.12,1.19c0.05,0.4,0.04,0.81,0.14,1.2
			c0.08,0.4,0.15,0.8,0.23,1.21c0.08,0.4,0.12,0.82,0.24,1.21c0.23,0.8,0.45,1.6,0.68,2.41c0.3,0.79,0.59,1.58,0.89,2.36
			c0.32,0.84,0.64,1.68,0.96,2.51c0.17,0.4,0.29,0.85,0.42,1.29c0.13,0.44,0.26,0.88,0.39,1.32l0.19,0.66l0.15,0.65
			c0.09,0.43,0.19,0.87,0.28,1.3c0.21,0.86,0.3,1.72,0.42,2.57c0.23,1.69,0.3,3.34,0.29,4.9
			C423.94,215.24,423.82,216.71,423.65,218.05z"/>
		<g>
			<path class="st3" d="M438.11,226.24c0,0,4.41-10.54,15.24-6.47c10.83,4.06,14.69,4.68,17.43,3.62c2.73-1.06,2.63-7.28-0.61-7.69
				c-3.25-0.41-5.6,2.57-4.17,5.13c0,0-2.25-3.83,0.75-6.36c3.01-2.53,10.25-0.51,8.99,6.56c-1.16,6.51-6.6,7.87-12.58,6.39
				c-5.06-1.25-12.81-3.9-12.81-3.9s9.6,3.55,12.78,4.71c3.18,1.17,6.35,1.2,8.2-0.41c0,0-1.44,4.21-9.6,2.04
				C453.56,227.69,444.06,223.62,438.11,226.24z"/>
			<path class="st3" d="M401.94,226.24c0,0-4.41-10.54-15.24-6.47c-10.83,4.06-14.69,4.68-17.43,3.62
				c-2.73-1.06-2.63-7.28,0.61-7.69c3.25-0.41,5.6,2.57,4.17,5.13c0,0,2.26-3.83-0.75-6.36c-3.01-2.53-10.25-0.51-8.99,6.56
				c1.17,6.51,6.6,7.87,12.58,6.39c5.06-1.25,12.82-3.9,12.82-3.9s-9.6,3.55-12.78,4.71c-3.18,1.17-6.36,1.2-8.2-0.41
				c0,0,1.44,4.21,9.6,2.04C386.49,227.69,395.99,223.62,401.94,226.24z"/>
		</g>
	</g>
	<g>
		<path class="st3" d="M420.02,428.07c11.88,0,21.51-13.75,21.51-30.71c0-16.96-9.63-30.71-21.51-30.71
			c-11.88,0-21.51,13.75-21.51,30.71C398.52,414.33,408.15,428.07,420.02,428.07z M416.4,378.47c0.16-1.34,0.41-2.56,0.66-3.63
			c0.25-1.07,0.54-1.98,0.78-2.72c0.25-0.74,0.5-1.31,0.66-1.69c0.17-0.39,0.28-0.58,0.28-0.58s-0.04,0.22-0.12,0.63
			c-0.08,0.41-0.17,1.01-0.28,1.77c-0.1,0.77-0.2,1.7-0.28,2.76c-0.07,1.06-0.12,2.26-0.13,3.56c0.02,0.65-0.01,1.33,0.05,2.03
			c0.05,0.7,0.04,1.42,0.13,2.16c0.08,0.74,0.12,1.5,0.26,2.26c0.13,0.77,0.2,1.56,0.38,2.34c0.29,1.58,0.7,3.2,1.18,4.79
			c0.13,0.39,0.26,0.79,0.39,1.18c0.13,0.4,0.24,0.79,0.41,1.2c0.32,0.81,0.64,1.62,0.95,2.43c0.32,0.87,0.64,1.73,0.96,2.6
			c0.26,0.88,0.46,1.79,0.68,2.67c0.19,0.89,0.28,1.79,0.41,2.67c0.1,0.89,0.1,1.77,0.15,2.63c0.01,0.86-0.06,1.71-0.11,2.54
			c-0.08,0.83-0.22,1.62-0.32,2.4c-0.15,0.77-0.32,1.52-0.49,2.24c-0.22,0.7-0.43,1.38-0.63,2.03c-0.25,0.64-0.47,1.25-0.7,1.82
			c-0.26,0.56-0.51,1.09-0.74,1.59c-0.26,0.48-0.49,0.94-0.73,1.35c-0.25,0.4-0.47,0.78-0.68,1.11c-0.43,0.66-0.8,1.15-1.06,1.48
			c-0.26,0.33-0.42,0.49-0.42,0.49s0.1-0.2,0.28-0.57c0.18-0.38,0.41-0.94,0.71-1.65c0.13-0.36,0.28-0.76,0.45-1.19
			c0.15-0.44,0.31-0.91,0.48-1.41c0.15-0.51,0.3-1.05,0.47-1.62c0.14-0.58,0.28-1.18,0.44-1.81c0.11-0.64,0.23-1.3,0.35-1.98
			c0.07-0.7,0.19-1.4,0.25-2.13c0.03-0.73,0.1-1.48,0.1-2.25c-0.04-0.77-0.01-1.55-0.07-2.34c-0.04-0.39-0.08-0.79-0.12-1.19
			c-0.05-0.4-0.04-0.81-0.14-1.2c-0.07-0.4-0.15-0.8-0.22-1.21c-0.09-0.4-0.12-0.82-0.24-1.21c-0.22-0.8-0.45-1.61-0.67-2.41
			c-0.3-0.79-0.6-1.57-0.89-2.36c-0.32-0.84-0.64-1.68-0.97-2.51c-0.16-0.4-0.29-0.85-0.42-1.29c-0.13-0.44-0.26-0.88-0.39-1.32
			l-0.19-0.66l-0.14-0.65c-0.09-0.44-0.19-0.87-0.28-1.3c-0.21-0.85-0.3-1.73-0.42-2.57c-0.23-1.69-0.3-3.34-0.29-4.9
			C416.11,381.29,416.23,379.81,416.4,378.47z"/>
		<g>
			<path class="st3" d="M401.94,370.29c0,0-4.41,10.54-15.24,6.47c-10.83-4.07-14.69-4.68-17.43-3.62
				c-2.73,1.06-2.63,7.28,0.61,7.69c3.25,0.41,5.61-2.57,4.17-5.13c0,0,2.25,3.84-0.75,6.36c-3.01,2.53-10.25,0.51-8.99-6.56
				c1.16-6.51,6.6-7.87,12.58-6.39c5.06,1.25,12.81,3.9,12.81,3.9s-9.6-3.54-12.78-4.71c-3.18-1.17-6.36-1.2-8.2,0.41
				c0,0,1.44-4.22,9.6-2.04C386.49,368.83,395.99,372.9,401.94,370.29z"/>
			<path class="st3" d="M438.11,370.29c0,0,4.41,10.54,15.24,6.47c10.83-4.07,14.69-4.68,17.43-3.62c2.73,1.06,2.63,7.28-0.62,7.69
				c-3.25,0.41-5.6-2.57-4.17-5.13c0,0-2.25,3.84,0.75,6.36c3.01,2.53,10.25,0.51,8.99-6.56c-1.17-6.51-6.6-7.87-12.58-6.39
				c-5.06,1.25-12.81,3.9-12.81,3.9s9.6-3.54,12.78-4.71c3.18-1.17,6.36-1.2,8.2,0.41c0,0-1.43-4.22-9.6-2.04
				C453.56,368.83,444.06,372.9,438.11,370.29z"/>
		</g>
	</g>
</g>
</svg>
